<?xml version="1.0"?><svg version="1.2" baseProfile="tiny-ps" viewBox="0 0 192 192" xmlns="http://www.w3.org/2000/svg" xmlns:xlink="http://www.w3.org/1999/xlink"><title>Keipr</title><g><g fill="#fff" transform="matrix(.1 0 0 -.1 0 192)"><path d="m286 1900-59-19-54-37-54-37-40-56-39-55-20-64-20-64V352l19-63 20-62 37-54 37-54 56-40 55-39 64-20 64-20h1216l64 20 64 20 55 39 56 40 37 54 37 54 20 62 19 63v1216l-19 63-20 62-37 54-37 54-56 40-55 39-64 20-64 20-612-1H345l-59-19z"/></g><g fill="#b1b0af" transform="matrix(.1 0 0 -.1 0 192)"><path d="m286 1900-59-19-54-37-54-37-40-56-39-55-20-64-20-64V352l19-63 20-62 37-54 37-54 56-40 55-39 64-20 64-20h1216l64 20 64 20 55 39 56 40 37 54 37 54 20 62 19 63v768h-76l-22-16c-12-8-29-28-37-44l-15-29V770h-60v390h60v-59l24 24 23 23 39 11c22 6 45 11 52 11h12v398l-19 63-20 62-37 54-37 54-56 40-55 39-64 20-64 20-612-1H345l-59-19zm784-620v-40h-60v80h60v-40zm-266-138 31-17 23-45 22-44v-86H582l7-33c10-44 29-72 62-91l27-16h99l43 15c53 19 50 19 50-10v-24l-37-10c-21-6-57-13-79-17l-41-6-55 16-54 15-26 28c-35 38-45 59-53 115l-7 46 16 54 15 54 30 28c16 15 46 34 67 42l39 14 44-5 44-5 31-18zm699-4 29-21 19-41 19-41V895l-19-41-19-41-28-20c-16-11-42-23-57-27l-28-7-35 7-34 6-30 28-30 28V620h-60v540h60v-58l30 28c35 33 59 40 114 34l39-5 30-21zm-433-173V770h-60v390h60V965zm-428 139c-24-17-52-64-52-89v-15h230v21c0 27-18 60-44 81l-21 18h-91l-22-16zm699 0-23-17-14-33-14-33V909l14-33 14-33 23-17 23-16h72l23 16 23 17 14 33 14 33v112l-14 33-14 33-23 17-23 16h-72l-23-16z"/></g><g fill="#38bdf9" transform="matrix(.1 0 0 -.1 0 192)"><path d="m286 1900-59-19-54-37-54-37-40-56-39-55-20-64-20-64V352l19-63 20-62 37-54 37-54 56-40 55-39 64-20 64-20h1216l64 20 64 20 56 40 56 40 40 59 39 59 17 64 17 63-3 375-3 375-23 3c-13 2-37-2-52-8l-29-12-18-27-18-26-3-137-4-138h-58v390h60v-53l23 21c26 24 69 42 103 42h24v398l-19 63-20 62-37 54-37 54-56 40-55 39-64 20-64 20-612-1H345l-59-19zm784-620v-40h-60v80h60v-40zm-263-136c15-11 36-32 47-47l20-27 4-60 4-60H590v-22c0-13 9-38 20-56l20-33 35-15c19-8 50-14 70-14h35l50 19 50 19v-58l-26-11c-15-5-53-12-85-16l-58-6-45 13-45 12-35 36-36 35-10 36c-20 74-8 155 31 212l19 27 42 21 43 22 58-4 57-3 27-20zm672 11c16-8 40-28 54-45l26-30 12-56 13-56-12-57-12-56-18-25c-11-14-34-35-52-47l-33-23h-39c-43 0-71 11-105 43l-23 20V620h-60v540h60v-53l23 20c35 32 59 42 100 43h38l28-15zm-409-190V770h-60v390h60V965zm-417 139-32-16-15-33c-9-18-16-38-16-44v-11h233l-7 33-6 32-30 28-30 27h-33c-17 0-46-8-64-16zm696 1-26-14-14-33-14-33V905l14-33 14-33 28-14c36-19 63-19 98 0l29 14 16 41 16 40v90l-16 40-16 41-29 14c-35 19-66 18-100 0z"/></g><g fill="#2c83a8" transform="matrix(.1 0 0 -.1 0 192)"><path d="m286 1900-59-19-54-37-54-37-40-56-39-55-20-64-20-64V352l19-63 20-62 37-54 37-54 56-40 55-39 64-20 64-20h1216l64 20 64 20 56 40 56 40 40 59 39 59 17 64 17 63-3 375-3 375-23 3c-13 2-37-2-52-8l-29-12-18-27-18-26-3-137-4-138h-58v390h60v-53l23 21c26 24 69 42 103 42h24v398l-19 63-20 62-37 54-37 54-56 40-55 39-64 20-64 20-612-1H345l-59-19zm-126-730v-150h8c4 0 39 32 77 70l69 70h138l-93-89-94-88 97-104 97-104-67-3-67-4-76 81c-41 45-78 81-82 81h-7V770H40v550h120v-150zm910 110v-40h-60v80h60v-40zm-263-136c15-11 36-32 47-47l20-27 4-60 4-60H590v-22c0-13 9-38 20-56l20-33 35-15c19-8 50-14 70-14h35l50 19 50 19v-58l-26-11c-15-5-53-12-85-16l-58-6-45 13-45 12-35 36-36 35-10 36c-20 74-8 155 31 212l19 27 42 21 43 22 58-4 57-3 27-20zm672 11c16-8 40-28 54-45l26-30 12-56 13-56-12-57-12-56-18-25c-11-14-34-35-52-47l-33-23h-39c-43 0-71 11-105 43l-23 20V621l125-3 125-3v-20H380l-2 10-3 10 428 3 427 2v540h60v-53l23 20c35 32 59 42 100 43h38l28-15zm-409-190V770h-60v390h60V965zm-417 139-32-16-15-33c-9-18-16-38-16-44v-11h233l-7 33-6 32-30 28-30 27h-33c-17 0-46-8-64-16zm696 1-26-14-14-33-14-33V905l14-33 14-33 28-14c36-19 63-19 98 0l29 14 16 41 16 40v90l-16 40-16 41-29 14c-35 19-66 18-100 0z"/></g><g fill="#656563" transform="matrix(.1 0 0 -.1 0 192)"><path d="m286 1900-59-19-54-37-54-37-40-56-39-55-20-64-20-64V352l19-63 20-62 37-54 37-54 56-40 55-39 64-20 64-20h1216l64 20 64 20 56 40 56 40 40 59 39 59 17 64 17 63-3 375-3 375-23 3c-13 2-37-2-52-8l-29-12-18-27-18-26-3-137-4-138h-58v390h60v-53l23 21c26 24 69 42 103 42h24v398l-19 63-20 62-37 54-37 54-56 40-55 39-64 20-64 20-612-1H345l-59-19zm-116-726v-146l74 66 73 66h69l69-1-95-89-95-89 105-106 105-105H322l-76 78-76 77V770H40v550h130v-146zm900 106v-40h-60v80h60v-40zm-263-136c15-11 36-32 47-47l20-27 4-60 4-60H590v-22c0-13 9-38 20-56l20-33 35-15c19-8 50-14 70-14h35l50 19 50 19v-58l-26-11c-15-5-53-12-85-16l-58-6-45 13-45 12-35 36-36 35-10 36c-20 74-8 155 31 212l19 27 42 21 43 22 58-4 57-3 27-20zm672 11c16-8 40-28 54-45l26-30 12-56 13-56-12-57-12-56-18-25c-11-14-34-35-52-47l-33-23h-39c-43 0-71 11-105 43l-23 20V621l125-3 125-3v-20H380l-2 10-3 10 428 3 427 2v540h60v-53l23 20c35 32 59 42 100 43h38l28-15zm-409-190V770h-60v390h60V965zm-417 139-32-16-15-33c-9-18-16-38-16-44v-11h233l-7 33-6 32-30 28-30 27h-33c-17 0-46-8-64-16zm696 1-26-14-14-33-14-33V905l14-33 14-33 28-14c36-19 63-19 98 0l29 14 16 41 16 40v90l-16 40-16 41-29 14c-35 19-66 18-100 0z"/></g><g fill="#1b1916" transform="matrix(.1 0 0 -.1 0 192)"><path d="m286 1900-59-19-54-37-54-37-40-56-39-55-20-64-20-64V352l19-63 20-62 37-54 37-54 56-40 55-39 64-20 64-20h1216l64 20 64 20 55 39 56 40 37 54 37 54 20 62 19 63v758l-24 6-25 6-27-14c-15-7-36-26-48-41l-20-28-4-134-4-135h-68v390h70v-54l21 23c25 27 60 41 100 41h29v398l-19 63-20 62-37 54-37 54-56 40-55 39-64 20-64 20-612-1H345l-59-19zm-116-727v-147l68 67 68 67h74l75-1-95-90-94-90 104-104 105-105H317l-73 78-73 77-1-77v-78H40v550h130v-147zm910 107v-40h-80v80h80v-40zm-264-138 32-22 16-35c9-19 20-58 23-85l6-50H588l8-32c9-43 28-72 61-89l26-14 58 2 57 1 30 16c42 22 44 21 40-16l-3-33-35-12-35-12h-63l-63-1-36 15c-50 21-72 42-94 90l-19 40v120l19 40c20 44 40 65 86 90l30 16 65-3 65-3 31-23zm680 8 33-21 25-51 26-52V905l-24-51-24-51-35-21-34-22h-99l-24 16c-14 10-31 24-37 32l-13 16V621l125-3 125-3v-20H380l-2 10-3 10 423 3 422 2v540h70v-54l13 16c6 8 23 22 37 32l24 16h99l33-20zm-416-185V770h-80v390h80V965zm-417 140-31-13-15-24c-8-13-18-33-22-45l-6-23h231l-6 28c-4 15-11 35-16 45l-10 19-33 14c-42 17-51 17-92-1zm698 3-25-13-20-34-20-34V903l20-34 20-34 25-13 24-13 30 6 29 5 23 22 22 21 12 52 12 52-12 51-12 50-23 21-22 21-29 5-30 6-24-13z"/></g></g></svg>